<?xml version="1.0" encoding="UTF-8" standalone="no"?>
<!-- Created with Inkscape (http://www.inkscape.org/) -->

<svg
   xmlns:dc="http://purl.org/dc/elements/1.1/"
   xmlns:cc="http://creativecommons.org/ns#"
   xmlns:rdf="http://www.w3.org/1999/02/22-rdf-syntax-ns#"
   xmlns:svg="http://www.w3.org/2000/svg"
   xmlns="http://www.w3.org/2000/svg"
   xmlns:sodipodi="http://sodipodi.sourceforge.net/DTD/sodipodi-0.dtd"
   xmlns:inkscape="http://www.inkscape.org/namespaces/inkscape"
   width="64"
   height="64"
   viewBox="0 0 16.933333 16.933334"
   version="1.1"
   id="svg8"
   inkscape:version="0.92.2 (5c3e80d, 2017-08-06)"
   sodipodi:docname="rotate_left.svg">
  <defs
     id="defs2" />
  <sodipodi:namedview
     id="base"
     pagecolor="#ffffff"
     bordercolor="#666666"
     borderopacity="1.0"
     inkscape:pageopacity="0.0"
     inkscape:pageshadow="2"
     inkscape:zoom="11.2"
     inkscape:cx="30.131222"
     inkscape:cy="31.857015"
     inkscape:document-units="mm"
     inkscape:current-layer="layer1"
     showgrid="false"
     units="px"
     inkscape:window-width="1920"
     inkscape:window-height="1016"
     inkscape:window-x="0"
     inkscape:window-y="27"
     inkscape:window-maximized="1" />
  <metadata
     id="metadata5">
    <rdf:RDF>
      <cc:Work
         rdf:about="">
        <dc:format>image/svg+xml</dc:format>
        <dc:type
           rdf:resource="http://purl.org/dc/dcmitype/StillImage" />
        <dc:title />
      </cc:Work>
    </rdf:RDF>
  </metadata>
  <g
     inkscape:label="Layer 1"
     inkscape:groupmode="layer"
     id="layer1"
     transform="translate(0,-280.06665)">
    <path
       style="fill:#22222f;fill-opacity:1;stroke-width:0.2335597"
       d="m 8.8987271,281.83958 a 6.6939887,6.6939887 0 0 1 0.390483,0.007 6.6939887,6.6939887 0 0 1 5.1218909,2.77125 6.6939887,6.6939887 0 0 1 -0.03467,7.87854 6.6939887,6.6939887 0 0 1 -7.5076674,2.38896 l 0.8179153,-2.45831 a 4.1081488,4.1081488 0 0 0 1.2950705,0.21486 4.1081488,4.1081488 0 0 0 4.1082786,-4.10828 4.1081488,4.1081488 0 0 0 -4.1082786,-4.10827 4.1081488,4.1081488 0 0 0 -4.0476078,3.40486 h 2.045472 l -1.607548,1.73162 -1.608004,1.73117 -1.607548,-1.73117 -1.60754802,-1.73162 H 2.3266656 a 6.6939887,6.6939887 0 0 1 4.597751,-5.66678 6.6939887,6.6939887 0 0 1 1.9743095,-0.32343 z"
       id="path10"
       inkscape:connector-curvature="0" />
  </g>
</svg>
