<?xml version="1.0" encoding="UTF-8" standalone="no"?>
<!-- Created with Inkscape (http://www.inkscape.org/) -->

<svg
   xmlns:dc="http://purl.org/dc/elements/1.1/"
   xmlns:cc="http://creativecommons.org/ns#"
   xmlns:rdf="http://www.w3.org/1999/02/22-rdf-syntax-ns#"
   xmlns:svg="http://www.w3.org/2000/svg"
   xmlns="http://www.w3.org/2000/svg"
   xmlns:xlink="http://www.w3.org/1999/xlink"
   xmlns:sodipodi="http://sodipodi.sourceforge.net/DTD/sodipodi-0.dtd"
   xmlns:inkscape="http://www.inkscape.org/namespaces/inkscape"
   width="1000"
   height="1000"
   viewBox="0 0 264.58334 264.58334"
   version="1.1"
   id="svg8"
   sodipodi:docname="icon.svg"
   inkscape:version="0.92.2 (5c3e80d, 2017-08-06)"
   inkscape:export-filename="icon_hres.png"
   inkscape:export-xdpi="96"
   inkscape:export-ydpi="96">
  <sodipodi:namedview
     id="base"
     pagecolor="#ffffff"
     bordercolor="#935656"
     borderopacity="1"
     inkscape:pageopacity="0.0"
     inkscape:pageshadow="2"
     inkscape:zoom="0.35"
     inkscape:cx="-53.244151"
     inkscape:cy="166.37425"
     inkscape:document-units="mm"
     inkscape:current-layer="g828"
     showgrid="false"
     fit-margin-top="0"
     fit-margin-left="0"
     fit-margin-right="0"
     fit-margin-bottom="0"
     inkscape:showpageshadow="false"
     inkscape:pagecheckerboard="true"
     showborder="true"
     inkscape:snap-global="false"
     inkscape:window-width="1920"
     inkscape:window-height="1016"
     inkscape:window-x="0"
     inkscape:window-y="27"
     inkscape:window-maximized="1"
     units="px" />
  <defs
     id="defs2">
    <linearGradient
       inkscape:collect="always"
       id="linearGradient4522">
      <stop
         style="stop-color:#260909;stop-opacity:1;"
         offset="0"
         id="stop4518" />
      <stop
         style="stop-color:#260909;stop-opacity:0;"
         offset="1"
         id="stop4520" />
    </linearGradient>
    <linearGradient
       inkscape:collect="always"
       id="linearGradient4514">
      <stop
         style="stop-color:#592626;stop-opacity:1;"
         offset="0"
         id="stop4510" />
      <stop
         style="stop-color:#592626;stop-opacity:0;"
         offset="1"
         id="stop4512" />
    </linearGradient>
    <linearGradient
       inkscape:collect="always"
       xlink:href="#linearGradient4514"
       id="linearGradient4516"
       x1="289.58704"
       y1="194.85188"
       x2="412.44681"
       y2="326.34122"
       gradientUnits="userSpaceOnUse" />
    <linearGradient
       inkscape:collect="always"
       xlink:href="#linearGradient4522"
       id="linearGradient4524"
       x1="347.81564"
       y1="82.079391"
       x2="398.64511"
       y2="125.11446"
       gradientUnits="userSpaceOnUse" />
  </defs>
  <metadata
     id="metadata5">
    <rdf:RDF>
      <cc:Work
         rdf:about="">
        <dc:format>image/svg+xml</dc:format>
        <dc:type
           rdf:resource="http://purl.org/dc/dcmitype/StillImage" />
        <dc:title />
      </cc:Work>
    </rdf:RDF>
  </metadata>
  <g
     inkscape:label="Layer 1"
     inkscape:groupmode="layer"
     id="layer1"
     transform="translate(-208.87724,-17.96851)">
    <g
       id="g828"
       transform="matrix(1,0,0,1.0061019,39.011347,-1.7241117)">
      <path
         sodipodi:nodetypes="cccsscc"
         inkscape:connector-curvature="0"
         id="rect4546"
         d="m 347.764,134.39753 c -18.71643,0 -33.78415,-15.06773 -33.78415,-33.78416 0,-27.013386 0,-54.026776 0,-81.040166 h 47.67374 c 18.71642,0 33.78416,15.06773 33.78416,33.78415 v 81.040176 c -15.89126,0 -31.7825,0 -47.67375,0 z"
         style="opacity:1;fill:#722b2b;fill-opacity:1;stroke-width:0.25517455" />
      <path
         inkscape:connector-curvature="0"
         id="path4615"
         d="m 306.12158,47.149544 v 53.641766 c 3e-5,9.4037 3.80468,17.88525 9.96367,23.99852 l 79.35263,79.35214 V 134.39738 89.48269 L 360.71249,54.757298 c -4.6562,-4.701875 -11.1223,-7.607754 -18.29295,-7.607754 z"
         style="opacity:1;fill:url(#linearGradient4524);fill-opacity:1;stroke-width:0.25517455" />
      <path
         id="path4549"
         d="m 305.94349,46.971419 v 53.641771 c 0,18.71642 15.06768,33.78411 33.78411,33.78411 h 28.23696 V 72.69455 c 0,-14.250466 -11.47264,-25.723131 -25.72311,-25.723131 z"
         style="opacity:1;fill:#f9e9e9;fill-opacity:1;stroke-width:0.25517455"
         inkscape:connector-curvature="0" />
      <path
         inkscape:connector-curvature="0"
         style="opacity:1;fill:#d83d3d;fill-opacity:1;stroke-width:0.25517455"
         d="m 242.66136,19.57328 c -18.71643,0 -33.78412,15.067692 -33.78412,33.784112 V 248.76774 c 0,18.71643 15.06769,33.78412 33.78412,33.78412 h 118.9924 c 18.71643,0 33.78412,-15.06769 33.78412,-33.78412 V 134.39738 h -47.67377 c -18.71644,0 -33.78411,-15.0677 -33.78411,-33.78412 V 19.57328 Z"
         id="rect4536" />
      <path
         inkscape:connector-curvature="0"
         id="path11780"
         d="m 234.02452,180.03457 v 52.40128 0.001 l 50.14692,50.11501 h 77.48232 c 18.71643,0 33.78412,-15.06769 33.78412,-33.78412 v -28.80449 l -39.9537,-39.92868 H 324.5185 v 22.70799 l -16.52807,-16.52761 c -1.17375,-1.21724 -2.49592,-2.26975 -3.96674,-3.1569 -3.34146,-2.01548 -7.18627,-3.02299 -11.53476,-3.02299 l -14.1099,-5e-4 v 17.46693 L 266.1105,185.23343 c -0.0731,-0.0767 -0.15098,-0.15065 -0.22612,-0.22612 -0.18865,-0.19769 -0.38296,-0.39201 -0.58469,-0.58174 l -5e-4,-5e-4 c -3.08971,-2.92723 -7.36956,-4.39052 -12.8395,-4.39052 z"
         style="font-style:normal;font-variant:normal;font-weight:normal;font-stretch:normal;font-size:75.84197998px;line-height:125%;font-family:Roboto;-inkscape-font-specification:'Roboto, Normal';font-variant-ligatures:normal;font-variant-caps:normal;font-variant-numeric:normal;font-feature-settings:normal;text-align:start;letter-spacing:0px;word-spacing:0px;writing-mode:lr-tb;text-anchor:start;fill:url(#linearGradient4516);fill-opacity:1;stroke:none;stroke-width:1.49975538;stroke-linecap:butt;stroke-linejoin:miter;stroke-opacity:1" />
      <path
         inkscape:connector-curvature="0"
         id="path7157"
         style="font-style:normal;font-variant:normal;font-weight:normal;font-stretch:normal;font-size:75.84197998px;line-height:125%;font-family:Roboto;-inkscape-font-specification:'Roboto, Normal';font-variant-ligatures:normal;font-variant-caps:normal;font-variant-numeric:normal;font-feature-settings:normal;text-align:start;letter-spacing:0px;word-spacing:0px;writing-mode:lr-tb;text-anchor:start;fill:#fefefe;fill-opacity:1;stroke:none;stroke-width:1.4997555px;stroke-linecap:butt;stroke-linejoin:miter;stroke-opacity:1"
         d="m 240.38838,211.69471 v 20.51461 H 233.797 v -52.40226 h 18.43526 q 8.20489,0 12.83945,4.39085 4.6689,4.39084 4.6689,11.62496 0,7.63 -4.5659,11.7689 -4.53159,4.10294 -13.01111,4.10294 z m 0,-5.65053 h 11.84388 q 5.28683,0 8.10189,-2.59131 2.81509,-2.62732 2.81509,-7.55802 0,-4.67878 -2.81509,-7.48604 -2.81506,-2.80726 -7.72425,-2.91524 h -12.22152 z" />
      <path
         inkscape:connector-curvature="0"
         id="path7159"
         style="font-style:normal;font-variant:normal;font-weight:normal;font-stretch:normal;font-size:75.84197998px;line-height:125%;font-family:Roboto;-inkscape-font-specification:'Roboto, Normal';font-variant-ligatures:normal;font-variant-caps:normal;font-variant-numeric:normal;font-feature-settings:normal;text-align:start;letter-spacing:0px;word-spacing:0px;writing-mode:lr-tb;text-anchor:start;fill:#fefefe;fill-opacity:1;stroke:none;stroke-width:1.4997555px;stroke-linecap:butt;stroke-linejoin:miter;stroke-opacity:1"
         d="m 278.15148,232.20932 v -52.40226 h 14.10966 q 6.52272,0 11.53492,3.02321 5.01219,3.02321 7.72427,8.60175 2.74641,5.57853 2.78073,12.81263 v 3.34712 q 0,7.41407 -2.7464,12.9926 -2.71207,5.57853 -7.79293,8.56575 -5.04653,2.98721 -11.77523,3.0592 z m 6.59138,-46.71575 v 41.06522 h 6.93468 q 7.62127,0 11.84388,-4.96668 4.25693,-4.96671 4.25693,-14.1443 v -3.05918 q 0,-8.92566 -4.01662,-13.85638 -3.9823,-4.96669 -11.32893,-5.03868 z" />
      <path
         inkscape:connector-curvature="0"
         id="path7161"
         style="font-style:normal;font-variant:normal;font-weight:normal;font-stretch:normal;font-size:75.84197998px;line-height:125%;font-family:Roboto;-inkscape-font-specification:'Roboto, Normal';font-variant-ligatures:normal;font-variant-caps:normal;font-variant-numeric:normal;font-feature-settings:normal;text-align:start;letter-spacing:0px;word-spacing:0px;writing-mode:lr-tb;text-anchor:start;fill:#fefefe;fill-opacity:1;stroke:none;stroke-width:1.4997555px;stroke-linecap:butt;stroke-linejoin:miter;stroke-opacity:1"
         d="m 351.85819,209.06739 h -20.9757 v 23.14193 h -6.59136 v -52.40226 h 30.96574 v 5.68651 h -24.37438 v 17.92331 h 20.9757 z" />
    </g>
  </g>
</svg>
